# xmcd
#
# Track frame offsets: 
#        182
#        11910
#        24810
#        37560
#        50610
#        60385
#        72892
#        89447
#        107347
#        116997
#        139202
#        157672
#        169722
#        188147
#        212862
#        224585
#        238022
#        249385
#        262422
#        275347
#
# Disc length: 3837 seconds
#
# Revision: 3
# Processed by: cddbd v1.5.2PL0 Copyright (c) Steve Scherf et al.
# Submitted via: ExactAudioCopyFreeDBPlugin 1.0
#
DISCID=1a0efb14
DTITLE=Champion Jack Dupree - Blues For Everybody
DYEAR=1992
DGENRE=Blues
TTITLE0=Blues For Everybody
TTITLE1=Harelip Blues
TTITLE2=Stumbling Block
TTITLE3=Silent Partner
TTITLE4=Me And My Mule
TTITLE5=Overhead
TTITLE6=Can't Kick The Habit
TTITLE7=Stack-O-Lee
TTITLE8=Talkin' Out Of My Head
TTITLE9=Bring Me Flowers While I'm Living
TTITLE10=24 Hours
TTITLE11=I Haven't Done No-One No Harm
TTITLE12=Down In The Valley
TTITLE13=Everything's Gonna Be Alright
TTITLE14=When Things Go Wrong
TTITLE15=Cabbage Greens No 1
TTITLE16=Chain Gang Blues
TTITLE17=Angola Blues
TTITLE18=Dupree Shake Dance
TTITLE19=Junker Blues
EXTD=
EXTT0=
EXTT1=
EXTT2=
EXTT3=
EXTT4=
EXTT5=
EXTT6=
EXTT7=
EXTT8=
EXTT9=
EXTT10=
EXTT11=
EXTT12=
EXTT13=
EXTT14=
EXTT15=
EXTT16=
EXTT17=
EXTT18=
EXTT19=
PLAYORDER=
